<?xml version="1.0" encoding="utf-8"?>
<!-- Generator: Adobe Illustrator 18.0.0, SVG Export Plug-In . SVG Version: 6.00 Build 0)  -->
<!DOCTYPE svg PUBLIC "-//W3C//DTD SVG 1.1//EN" "http://www.w3.org/Graphics/SVG/1.1/DTD/svg11.dtd">
<svg version="1.1" id="Layer_1" xmlns="http://www.w3.org/2000/svg" xmlns:xlink="http://www.w3.org/1999/xlink" x="0px" y="0px"
	 viewBox="0 0 1024 768" enable-background="new 0 0 1024 768" xml:space="preserve">
<path fill="#FFFFFF" stroke="#000000" stroke-miterlimit="10" d="M986,641.4H406.8c-6.6,0-12-5.4-12-12V138.6c0-6.6,5.4-12,12-12
	H986c6.6,0,12,5.4,12,12v490.9C998,636,992.6,641.4,986,641.4z"/>
<g>
	<rect x="512" y="180.4" fill="#FAD3E4" width="365.8" height="192.6"/>
	<g>
		<polyline fill="none" stroke="#091318" stroke-miterlimit="10" points="877.8,367 877.8,373 871.8,373 		"/>
		
			<line fill="none" stroke="#091318" stroke-miterlimit="10" stroke-dasharray="12.2003,12.2003" x1="859.6" y1="373" x2="524.1" y2="373"/>
		<polyline fill="none" stroke="#091318" stroke-miterlimit="10" points="518,373 512,373 512,367 		"/>
		
			<line fill="none" stroke="#091318" stroke-miterlimit="10" stroke-dasharray="12.0369,12.0369" x1="512" y1="354.9" x2="512" y2="192.4"/>
		<polyline fill="none" stroke="#091318" stroke-miterlimit="10" points="512,186.4 512,180.4 518,180.4 		"/>
		
			<line fill="none" stroke="#091318" stroke-miterlimit="10" stroke-dasharray="12.2003,12.2003" x1="530.2" y1="180.4" x2="865.7" y2="180.4"/>
		<polyline fill="none" stroke="#091318" stroke-miterlimit="10" points="871.8,180.4 877.8,180.4 877.8,186.4 		"/>
		
			<line fill="none" stroke="#091318" stroke-miterlimit="10" stroke-dasharray="12.0369,12.0369" x1="877.8" y1="198.5" x2="877.8" y2="361"/>
	</g>
</g>
<g>
	<rect x="512.5" y="375" fill="#CCDEF2" width="365.8" height="192.6"/>
	<g>
		<polyline fill="none" stroke="#0B0E17" stroke-miterlimit="10" points="878.3,561.5 878.3,567.5 872.3,567.5 		"/>
		
			<line fill="none" stroke="#0B0E17" stroke-miterlimit="10" stroke-dasharray="12.2003,12.2003" x1="860.1" y1="567.5" x2="524.6" y2="567.5"/>
		<polyline fill="none" stroke="#0B0E17" stroke-miterlimit="10" points="518.5,567.5 512.5,567.5 512.5,561.5 		"/>
		
			<line fill="none" stroke="#0B0E17" stroke-miterlimit="10" stroke-dasharray="12.0369,12.0369" x1="512.5" y1="549.5" x2="512.5" y2="387"/>
		<polyline fill="none" stroke="#0B0E17" stroke-miterlimit="10" points="512.5,381 512.5,375 518.5,375 		"/>
		
			<line fill="none" stroke="#0B0E17" stroke-miterlimit="10" stroke-dasharray="12.2003,12.2003" x1="530.7" y1="375" x2="866.2" y2="375"/>
		<polyline fill="none" stroke="#0B0E17" stroke-miterlimit="10" points="872.3,375 878.3,375 878.3,381 		"/>
		
			<line fill="none" stroke="#0B0E17" stroke-miterlimit="10" stroke-dasharray="12.0369,12.0369" x1="878.3" y1="393" x2="878.3" y2="555.5"/>
	</g>
</g>
<path fill="none" d="M182.8,319.8H93c-6.6,0-12-5.7-12-12.6v-79c0-7,5.4-12.6,12-12.6h89.8c6.6,0,12,5.7,12,12.6v79
	C194.8,314.1,189.4,319.8,182.8,319.8z"/>
<text transform="matrix(1 0 0 1 88.6943 224.0518)" font-family="'MyriadPro-Regular'" font-size="12">Customer premise</text>
<path fill="#FFFFFF" stroke="#000000" stroke-miterlimit="10" d="M106.4,288.3L106.4,288.3c-5.3,0-9.6-4.3-9.6-9.6v-30.5
	c0-5.3,4.3-9.6,9.6-9.6h0c5.3,0,9.6,4.3,9.6,9.6v30.5C116,284,111.7,288.3,106.4,288.3z"/>
<rect x="137.9" y="241.1" fill="#FFFFFF" stroke="#000000" stroke-miterlimit="10" width="33.5" height="29.3"/>
<line fill="none" stroke="#000000" stroke-miterlimit="10" x1="131" y1="282.6" x2="182.1" y2="282.6"/>
<line fill="none" stroke="#000000" stroke-miterlimit="10" x1="144.8" y1="270.3" x2="137.9" y2="282.6"/>
<line fill="none" stroke="#000000" stroke-miterlimit="10" x1="162.9" y1="270.3" x2="171.4" y2="282.6"/>
<line fill="none" stroke="#000000" stroke-miterlimit="10" x1="102.2" y1="255.7" x2="111.8" y2="255.7"/>
<line fill="none" stroke="#000000" stroke-miterlimit="10" x1="102.2" y1="267.3" x2="111.8" y2="267.3"/>
<path fill="none" stroke="#000000" stroke-miterlimit="10" d="M182.8,296.4H93c-6.6,0-12-5.4-12-12v-67.5c0-6.6,5.4-12,12-12h89.8
	c6.6,0,12,5.4,12,12v67.5C194.8,291,189.4,296.4,182.8,296.4z"/>
<text transform="matrix(1 0 0 1 288.4466 255.6916)" font-family="'MyriadPro-Regular'" font-size="12">Internet</text>
<ellipse fill="none" stroke="#000000" stroke-miterlimit="10" cx="308.7" cy="254.4" rx="70.2" ry="49.5"/>
<text transform="matrix(1 0 0 1 426.1065 250.6384)"><tspan x="0" y="0" fill="#2B3990" font-family="'MyriadPro-Regular'" font-size="12">IBM Cloud </tspan><tspan x="0" y="14.4" fill="#2B3990" font-family="'MyriadPro-Regular'" font-size="12">     POP</tspan></text>
<rect x="424.1" y="227.2" fill="none" stroke="#000000" stroke-miterlimit="10" width="55.3" height="61.1"/>
<text transform="matrix(1 0 0 1 623.7874 148.5104)" fill="#2B3990" font-family="'MyriadPro-Regular'" font-size="14">IBM Cloud Data Center</text>
<ellipse fill="none" stroke="#2B3990" stroke-miterlimit="10" cx="541.1" cy="157.6" rx="39.9" ry="22.9"/>
<text transform="matrix(1 0 0 1 507.4681 153.8297)"><tspan x="0" y="0" font-family="'MyriadPro-Regular'" font-size="12">         VPN </tspan><tspan x="0" y="14.4" font-family="'MyriadPro-Regular'" font-size="12">Concentrator</tspan></text>
<rect x="881.1" y="180.4" fill="#ED1C24" stroke="#000000" stroke-miterlimit="10" width="25.5" height="192.6"/>
<rect x="881.1" y="375" fill="#1C75BC" stroke="#000000" stroke-miterlimit="10" width="25.5" height="192.6"/>
<rect x="936.7" y="142.5" fill="#00A651" stroke="#000000" stroke-miterlimit="10" width="39.4" height="444.7"/>
<linearGradient id="SVGID_1_" gradientUnits="userSpaceOnUse" x1="618.0851" y1="374.9787" x2="673.4042" y2="374.9787">
	<stop  offset="0" style="stop-color:#FFFFFF"/>
	<stop  offset="1" style="stop-color:#000000"/>
</linearGradient>
<rect x="618.1" y="344.4" fill="url(#SVGID_1_)" stroke="#000000" stroke-miterlimit="10" width="55.3" height="61.1"/>
<linearGradient id="SVGID_2_" gradientUnits="userSpaceOnUse" x1="719.0425" y1="374.9787" x2="774.3617" y2="374.9787">
	<stop  offset="0" style="stop-color:#FFFFFF"/>
	<stop  offset="1" style="stop-color:#000000"/>
</linearGradient>
<rect x="719" y="344.4" fill="url(#SVGID_2_)" stroke="#000000" stroke-miterlimit="10" width="55.3" height="61.1"/>
<path fill="#ED1C24" stroke="#000000" stroke-miterlimit="10" d="M808.9,297.1H584c-6.6,0-12-5.4-12-12V280c0-6.6,5.4-12,12-12
	h224.9c6.6,0,12,5.4,12,12v5.1C820.9,291.7,815.5,297.1,808.9,297.1z"/>
<path fill="#1C75BC" stroke="#000000" stroke-miterlimit="10" d="M808.9,481.2H584c-6.6,0-12-5.4-12-12v-5.1c0-6.6,5.4-12,12-12
	h224.9c6.6,0,12,5.4,12,12v5.1C820.9,475.8,815.5,481.2,808.9,481.2z"/>
<text transform="matrix(1 0 0 1 659.7234 288.2979)" fill="#FFFFFF" font-family="'MyriadPro-Regular'" font-size="12">Public VLAN</text>
<text transform="matrix(0.9768 0 0 1 659.7236 470.8818)" fill="#FFFFFF" font-family="'MyriadPro-Regular'" font-size="12.285">Private VLAN</text>
<text transform="matrix(1 0 0 1 731.3186 373.4682)"><tspan x="0" y="0" font-family="'MyriadPro-Regular'" font-size="12">HSM </tspan><tspan x="0" y="14.4" font-family="'MyriadPro-Regular'" font-size="12">client</tspan></text>
<text transform="matrix(1 0 0 1 628.1542 372.9789)"><tspan x="0" y="0" font-family="'MyriadPro-Regular'" font-size="12">HSM </tspan><tspan x="0" y="14.4" font-family="'MyriadPro-Regular'" font-size="12">client</tspan></text>
<text transform="matrix(1 0 0 1 893.8936 190.0001)" writing-mode="tb"><tspan x="0" y="0" fill="#FFFFFF" font-family="'MyriadPro-Regular'" font-size="12" glyph-orientation-vertical="0">Private</tspan><tspan x="0" y="84" fill="#FFFFFF" font-family="'MyriadPro-Regular'" font-size="12" glyph-orientation-vertical="1">  </tspan><tspan x="0" y="89.1" fill="#FFFFFF" font-family="'MyriadPro-Regular'" font-size="12" glyph-orientation-vertical="0">network</tspan></text>
<text transform="matrix(1 0 0 1 893.8937 384.0001)" writing-mode="tb"><tspan x="0" y="0" fill="#FFFFFF" font-family="'MyriadPro-Regular'" font-size="12" glyph-orientation-vertical="0">Private</tspan><tspan x="0" y="84" fill="#FFFFFF" font-family="'MyriadPro-Regular'" font-size="12" glyph-orientation-vertical="1">  </tspan><tspan x="0" y="89.1" fill="#FFFFFF" font-family="'MyriadPro-Regular'" font-size="12" glyph-orientation-vertical="0">network</tspan></text>
<text transform="matrix(1 0 0 1 956.383 264.3192)" writing-mode="tb"><tspan x="0" y="0" fill="#FFFFFF" font-family="'MyriadPro-Regular'" font-size="12" glyph-orientation-vertical="0">Management</tspan><tspan x="0" y="120" fill="#FFFFFF" font-family="'MyriadPro-Regular'" font-size="12" glyph-orientation-vertical="1">  </tspan><tspan x="0" y="125.1" fill="#FFFFFF" font-family="'MyriadPro-Regular'" font-size="12" glyph-orientation-vertical="0">VLAN</tspan></text>
<rect x="628.2" y="501.7" fill="#F7941E" stroke="#F7941E" stroke-miterlimit="10" width="35.2" height="37.2"/>
<rect x="729.1" y="501.7" fill="#F7941E" stroke="#F7941E" stroke-miterlimit="10" width="35.2" height="37.2"/>
<line fill="#ED1C24" stroke="#ED1C24" stroke-miterlimit="10" x1="196.5" y1="239" x2="241.5" y2="239"/>
<line fill="#ED1C24" stroke="#ED1C24" stroke-miterlimit="10" x1="195.5" y1="263.8" x2="240.5" y2="263.8"/>
<line fill="none" stroke="#ED1C24" stroke-miterlimit="10" x1="308.7" y1="204.9" x2="308.7" y2="157.6"/>
<line fill="none" stroke="#ED1C24" stroke-miterlimit="10" x1="308.7" y1="157.6" x2="501.2" y2="157.6"/>
<line fill="#00A651" stroke="#00A651" stroke-miterlimit="10" x1="581" y1="157.6" x2="936.7" y2="153.8"/>
<line fill="#ED1C24" stroke="#ED1C24" stroke-miterlimit="10" x1="378.9" y1="257.8" x2="423.9" y2="257.8"/>
<line fill="#ED1C24" stroke="#ED1C24" stroke-miterlimit="10" x1="479.4" y1="257.8" x2="694.9" y2="257.8"/>
<line fill="#ED1C24" stroke="#ED1C24" stroke-miterlimit="10" x1="694.9" y1="256.8" x2="694.9" y2="266.3"/>
<line fill="#ED1C24" stroke="#ED1C24" stroke-miterlimit="10" x1="645.7" y1="297.1" x2="645.7" y2="344.4"/>
<line fill="#ED1C24" stroke="#ED1C24" stroke-miterlimit="10" x1="750.9" y1="297.1" x2="750.9" y2="344.4"/>
<line fill="#1C75BC" stroke="#1C75BC" stroke-miterlimit="10" x1="645.7" y1="405.5" x2="645.7" y2="452.9"/>
<line fill="#1C75BC" stroke="#1C75BC" stroke-miterlimit="10" x1="750.9" y1="405.5" x2="750.9" y2="452.9"/>
<line fill="none" stroke="#1C75BC" stroke-miterlimit="10" x1="645.7" y1="481.2" x2="645.7" y2="501.7"/>
<line fill="none" stroke="#1C75BC" stroke-miterlimit="10" x1="750.9" y1="481.2" x2="750.9" y2="501.7"/>
<line fill="#00A651" stroke="#00A651" stroke-miterlimit="10" x1="645.7" y1="538.9" x2="645.7" y2="559.1"/>
<line fill="#00A651" stroke="#00A651" stroke-miterlimit="10" x1="645.7" y1="559.1" x2="936.7" y2="559.1"/>
<line fill="#00A651" stroke="#00A651" stroke-miterlimit="10" x1="765.3" y1="520.3" x2="937.7" y2="520.3"/>
</svg>
